HIERARCHY
ROOT root
{
	OFFSET	0	13.1	24.9
	CHANNELS 6  Xposition Yposition Zposition Xrotation Yrotation Zrotation
	JOINT spine_1
	{
		OFFSET	0	9.99999	0
		CHANNELS 3  Xrotation Yrotation Zrotation
		JOINT spine_2
		{
			OFFSET	0	112	-10
			CHANNELS 3  Xrotation Yrotation Zrotation
			JOINT spine_3
			{
				OFFSET	0	206.5	19.3
				CHANNELS 3  Xrotation Yrotation Zrotation
				JOINT spine_4
				{
					OFFSET	0	110.4	14.6
					CHANNELS 3  Xrotation Yrotation Zrotation
					JOINT neck_1
					{
						OFFSET	0	71.8	-50.3
						CHANNELS 3  Xrotation Yrotation Zrotation
						JOINT neck_2
						{
							OFFSET	0	86.2	-25.8
							CHANNELS 3  Xrotation Yrotation Zrotation
							JOINT head_ee
							{
								OFFSET	0	179.8	-8.7
								CHANNELS 3  Xrotation Yrotation Zrotation
								End Site
								{
									OFFSET	1	0	0
								}
							}
						}
					}
					JOINT left_clavicle
					{
						OFFSET	-43.2	22.4	-70.8
						CHANNELS 3  Xrotation Yrotation Zrotation
						JOINT left_shoulder
						{
							OFFSET	-93.9	-5.79999	48.7
							CHANNELS 3  Xrotation Yrotation Zrotation
							JOINT left_elbow
							{
								OFFSET	-291.4	-30.8	15.2
								CHANNELS 3  Xrotation Yrotation Zrotation
								JOINT left_lowarm_twist
								{
									OFFSET	-110.7	-3.89999	13.6
									CHANNELS 3  Xrotation Yrotation Zrotation
									JOINT left_hand
									{
										OFFSET	-110.7	-3.89999	13.6
										CHANNELS 3  Xrotation Yrotation Zrotation
										JOINT left_ee
										{
											OFFSET	-80.8	-5.10001	12.1
											CHANNELS 3  Xrotation Yrotation Zrotation
											End Site
											{
												OFFSET	1	0	0
											}
										}
									}
								}
							}
						}
					}
					JOINT right_clavicle
					{
						OFFSET	43.2	22.4	-70.8
						CHANNELS 3  Xrotation Yrotation Zrotation
						JOINT right_shoulder
						{
							OFFSET	93.9	-5.79999	48.7
							CHANNELS 3  Xrotation Yrotation Zrotation
							JOINT right_elbow
							{
								OFFSET	291.4	-30.8	15.2
								CHANNELS 3  Xrotation Yrotation Zrotation
								JOINT right_lowarm_twist
								{
									OFFSET	110.7	-3.89999	13.6
									CHANNELS 3  Xrotation Yrotation Zrotation
									JOINT right_hand
									{
										OFFSET	110.7	-3.89999	13.6
										CHANNELS 3  Xrotation Yrotation Zrotation
										JOINT right_ee
										{
											OFFSET	80.8	-5.10001	12.1
											CHANNELS 3  Xrotation Yrotation Zrotation
											End Site
											{
												OFFSET	1	0	0
											}
										}
									}
								}
							}
						}
					}
				}
			}
		}
	}
	JOINT left_hip
	{
		OFFSET	-82.8	-127.5	0.300001
		CHANNELS 3  Xrotation Yrotation Zrotation
		JOINT left_knee
		{
			OFFSET	-28.2	-396.7	2.2
			CHANNELS 3  Xrotation Yrotation Zrotation
			JOINT left_ankle
			{
				OFFSET	-11.7	-411.3	35.4
				CHANNELS 3  Xrotation Yrotation Zrotation
				JOINT left_toes
				{
					OFFSET	0	-60	-88.6
					CHANNELS 3  Xrotation Yrotation Zrotation
					JOINT left_foot_ee
					{
						OFFSET	-22.5	-16.5	-42.2
						CHANNELS 3  Xrotation Yrotation Zrotation
						End Site
						{
							OFFSET	1	0	0
						}
					}
				}
			}
		}
	}
	JOINT right_hip
	{
		OFFSET	82.8	-127.5	0.300001
		CHANNELS 3  Xrotation Yrotation Zrotation
		JOINT right_knee
		{
			OFFSET	28.2	-396.7	2.2
			CHANNELS 3  Xrotation Yrotation Zrotation
			JOINT right_ankle
			{
				OFFSET	11.7	-411.3	35.4
				CHANNELS 3  Xrotation Yrotation Zrotation
				JOINT right_toes
				{
					OFFSET	0	-60	-88.6
					CHANNELS 3  Xrotation Yrotation Zrotation
					JOINT right_foot_ee
					{
						OFFSET	22.5	-16.5	-42.2
						CHANNELS 3  Xrotation Yrotation Zrotation
						End Site
						{
							OFFSET	1	0	0
						}
					}
				}
			}
		}
	}
}
MOTION
Frames: 10
Frame Time: 0.02
1372.05 701.618 -1475.22 -0.114390557506 10.4057476663 -1.0800245378 -3.45954 0.597351 2.08462 -3.45724 0.463521 2.11839 -3.43609 -0.121994 2.16505 -3.44257 0.221385 2.15716 10.4303 13.1971 -4.75744 11.9093 25.9057 -6.15769 -0.0 0.0 -0.0 -0.995288 15.8188 0.285618 16.3087 -30.3062 62.7219 3.57505 -60.533 2.08674 -14.5525 -0.73361 1.70501 3.42598 -10.1428 19.151 -0.0 0.0 -0.0 11.1925 23.6249 -21.7898 -22.3879 21.6612 -61.5854 0.237304 6.7047 -0.0139004 13.3947 -0.276106 1.6849 1.79507 -29.6927 -21.6667 0.0 0.0 0.0 -18.6185 17.9375 11.731 -11.621 0.30138 1.75491 41.8987 20.4206 -5.21077 -27.555 0.0 0.0 -0.0 0.0 -0.0 35.193 8.07721 -8.23903 -15.1939 -0.321914 -2.30263 4.1634 -5.88795 0.603228 -14.0588 0.0 0.0 0.0 0.0 0.0 
1350.75170844 700.862 -1517.02494178 0.898004421698 14.3282361285 -2.29670101238 -3.62764 0.371055 2.45162 -3.62432 0.214349 2.47025 -3.6101 -0.464129 2.43572 -3.61837 -0.0737503 2.47843 10.1441 12.2159 -4.02976 11.3248 23.6908 -5.12309 -0.0 0.0 -0.0 -1.58956 16.7152 -0.515109 13.5461 -31.3175 63.2521 3.02116 -56.2383 1.61472 -18.6712 -1.01774 2.14908 2.77293 1.9944 19.658 -0.0 0.0 -0.0 12.1106 21.038 -24.1104 -21.7959 24.9868 -58.6203 0.183691 5.19944 -0.00834041 10.3356 -0.247914 1.29522 2.30713 -29.6455 -24.691 0.0 0.0 0.0 -21.9313 18.1341 11.5937 -11.6425 0.301607 1.75821 42.3147 23.3968 -5.33194 -26.349 0.0 0.0 -0.0 0.0 -0.0 34.5843 4.31944 -7.08598 -22.8762 -0.250402 -3.47834 5.12387 4.14368 0.75715 -10.7967 0.0 0.0 0.0 0.0 0.0 
1351.25267265 700.862 -1517.27640921 0.895336278552 13.6437902301 -2.28566145559 -3.62764 0.371055 2.45162 -3.62432 0.214349 2.47025 -3.6101 -0.464129 2.43572 -3.61837 -0.0737503 2.47843 10.1441 12.2159 -4.02976 11.3248 23.6908 -5.12309 -0.0 0.0 -0.0 -1.58956 16.7152 -0.515109 13.5461 -31.3175 63.2521 3.02116 -56.2383 1.61472 -18.6712 -1.01774 2.14908 2.77293 1.9944 19.658 -0.0 0.0 -0.0 12.1106 21.038 -24.1104 -21.7959 24.9868 -58.6203 0.183691 5.19944 -0.00834041 10.3356 -0.247914 1.29522 2.30713 -29.6455 -24.691 0.0 0.0 0.0 -21.9313 18.1341 11.5937 -11.6425 0.301607 1.75821 42.3147 23.3968 -5.33194 -26.349 0.0 0.0 -0.0 0.0 -0.0 34.5843 4.31944 -7.08598 -22.8762 -0.250402 -3.47834 5.12387 4.14368 0.75715 -10.7967 0.0 0.0 0.0 0.0 0.0 
1351.72031395 700.862 -1517.5044445 0.892987635953 13.0085029462 -2.27547200007 -3.62764 0.371055 2.45162 -3.62432 0.214349 2.47025 -3.6101 -0.464129 2.43572 -3.61837 -0.0737503 2.47843 10.1441 12.2159 -4.02976 11.3248 23.6908 -5.12309 -0.0 0.0 -0.0 -1.58956 16.7152 -0.515109 13.5461 -31.3175 63.2521 3.02116 -56.2383 1.61472 -18.6712 -1.01774 2.14908 2.77293 1.9944 19.658 -0.0 0.0 -0.0 12.1106 21.038 -24.1104 -21.7959 24.9868 -58.6203 0.183691 5.19944 -0.00834041 10.3356 -0.247914 1.29522 2.30713 -29.6455 -24.691 0.0 0.0 0.0 -21.9313 18.1341 11.5937 -11.6425 0.301607 1.75821 42.3147 23.3968 -5.33194 -26.349 0.0 0.0 -0.0 0.0 -0.0 34.5843 4.31944 -7.08598 -22.8762 -0.250402 -3.47834 5.12387 4.14368 0.75715 -10.7967 0.0 0.0 0.0 0.0 0.0 
1311.5273146 705.446 -1577.73177907 -0.377195242683 18.8363780302 -1.85772258409 -3.61613 0.267341 2.42593 -3.61286 0.112477 2.43802 -3.60345 -0.553231 2.37712 -3.6113 -0.170984 2.43462 13.3304 11.724 -4.40368 14.6194 22.7007 -6.06805 -0.0 0.0 -0.0 -1.69106 19.5446 -0.223149 7.47606 -33.427 65.0576 2.4113 -50.057 1.126 -28.2678 -1.79839 3.09727 1.38246 10.6997 13.3746 -0.0 0.0 -0.0 12.8055 18.828 -25.8713 -21.4927 25.7842 -56.2444 0.293382 8.26926 -0.0212082 5.81732 -0.168337 0.723693 3.54654 -28.5661 -32.3676 0.0 0.0 0.0 -22.0508 21.4851 9.19133 -14.053 0.31907 2.12762 41.5987 24.9591 -5.31742 -34.2662 0.0 0.0 -0.0 0.0 -0.0 32.2315 -6.64784 -4.52624 -24.7716 -0.208569 -3.76617 4.80526 27.4698 0.854514 -7.27542 0.0 0.0 0.0 0.0 0.0 
1313.3951582 705.446 -1578.81184248 -0.374938712048 17.7979264074 -1.86490236621 -3.61613 0.267341 2.42593 -3.61286 0.112477 2.43802 -3.60345 -0.553231 2.37712 -3.6113 -0.170984 2.43462 13.3304 11.724 -4.40368 14.6194 22.7007 -6.06805 -0.0 0.0 -0.0 -1.69106 19.5446 -0.223149 7.47606 -33.427 65.0576 2.4113 -50.057 1.126 -28.2678 -1.79839 3.09727 1.38246 10.6997 13.3746 -0.0 0.0 -0.0 12.8055 18.828 -25.8713 -21.4927 25.7842 -56.2444 0.293382 8.26926 -0.0212082 5.81732 -0.168337 0.723693 3.54654 -28.5661 -32.3676 0.0 0.0 0.0 -22.0508 21.4851 9.19133 -14.053 0.31907 2.12762 41.5987 24.9591 -5.31742 -34.2662 0.0 0.0 -0.0 0.0 -0.0 32.2315 -6.64784 -4.52624 -24.7716 -0.208569 -3.76617 4.80526 27.4698 0.854514 -7.27542 0.0 0.0 0.0 0.0 0.0 
1265.97817752 714.89 -1624.37129726 -0.754056788495 18.4702620713 -2.74208949435 -2.78796 0.254996 2.41352 -2.78472 0.100946 2.42485 -2.77657 -0.52661 2.36916 -2.78437 -0.145951 2.42256 12.7187 11.1412 -4.38711 13.8877 21.8582 -5.91718 -0.0 0.0 -0.0 -1.17601 22.7367 1.00138 4.12212 -27.8481 69.3717 1.5482 -37.4831 0.525315 -31.7804 -2.1224 3.41004 -0.712407 20.2432 3.91864 -0.0 0.0 -0.0 13.049 17.7379 -26.5009 -20.9567 26.4118 -55.6337 0.357129 10.0327 -0.0313475 -0.0661495 0.00233528 -0.00812527 3.02121 -30.2411 -29.1826 0.0 0.0 0.0 -18.677 22.3396 7.93106 -23.2223 0.243475 3.531 39.2617 25.284 -5.10558 -32.2976 0.0 0.0 -0.0 0.0 -0.0 25.4321 -1.12234 -5.06158 -15.5991 -0.322086 -2.36481 6.9544 20.0944 1.13245 -8.95373 0.0 0.0 0.0 0.0 0.0 
1249.99793972 716.669 -1647.00276888 -0.495101879387 17.2044325595 -3.3177224918 -3.00173 0.356257 2.58214 -2.99804 0.191283 2.59956 -2.98452 -0.49355 2.55947 -2.99365 -0.0832798 2.60526 13.674 11.8781 -5.86152 15.2772 24.2277 -8.07838 -0.0 0.0 -0.0 -1.5828 22.3423 0.374315 -0.18749 -34.7769 68.321 1.21462 -31.0336 0.337238 -33.8187 -2.31904 3.58231 -0.138804 18.4761 6.64873 -0.0 0.0 -0.0 13.1899 18.6864 -26.7755 -19.5947 28.0096 -56.219 0.379597 10.6498 -0.0353808 -3.05185 0.117476 -0.371928 3.59991 -30.5885 -32.9512 0.0 0.0 0.0 -15.2367 23.7762 6.63943 -29.0325 0.0799078 4.40728 41.909 25.5004 -5.36481 -33.6443 0.0 0.0 -0.0 0.0 -0.0 22.0935 -6.33934 -4.67912 -13.3856 -0.315791 -2.02527 4.14864 24.9658 0.717638 -7.13854 0.0 0.0 0.0 0.0 0.0 
1235.87946593 720.703 -1660.28450835 -0.333186790126 16.9642507692 -3.17581153648 -2.72391 0.47225 2.55108 -2.72034 0.309017 2.57594 -2.70173 -0.360926 2.56918 -2.71093 0.049217 2.59393 11.09 13.2929 -3.53417 12.4108 24.8338 -4.70425 -0.0 0.0 -0.0 -1.61789 22.0886 0.285254 0.877049 -27.9211 72.0039 0.941911 -25.0131 0.208934 -37.1791 -2.65628 3.85079 -1.3695 25.9585 2.58383 -0.0 0.0 -0.0 12.754 17.1062 -25.8471 -16.3743 30.8443 -56.7192 0.344556 9.68626 -0.0291945 -7.10122 0.303656 -0.854934 2.67752 -30.0297 -27.0129 0.0 0.0 0.0 -12.1172 23.1928 6.3924 -34.9044 -0.174808 5.27193 42.2318 25.5559 -5.39649 -32.0568 0.0 0.0 -0.0 0.0 -0.0 18.9149 -0.295136 -5.11824 -8.57174 -0.256881 -1.2892 9.4991 22.8154 1.57318 -7.04801 0.0 0.0 0.0 0.0 0.0 
1210.38268229 717.929 -1677.18010661 0.472352206623 17.3533438904 -4.69398357185 -2.44567 0.2957 2.86435 -2.44112 0.112911 2.87735 -2.43039 -0.614661 2.81325 -2.4414 -0.162839 2.87496 8.44386 15.7382 -7.26903 10.7966 32.6901 -9.13584 -0.0 0.0 -0.0 -1.4214 21.8346 0.523754 -4.84787 -35.2309 70.1281 0.725254 -19.7618 0.12633 -36.6587 -2.60303 3.8105 -0.832782 28.7078 6.69466 -0.0 0.0 -0.0 12.8872 19.6445 -26.0078 -15.3085 31.6775 -56.4523 0.471457 13.1458 -0.0543237 -8.24689 0.362495 -0.989121 3.32592 -30.415 -31.1457 0.0 0.0 0.0 -11.9622 24.421 7.9328 -37.5249 -0.316861 5.64866 41.1947 25.3745 -5.2939 -34.0274 0.0 0.0 -0.0 0.0 -0.0 15.9414 6.91168 -4.12997 -6.36631 -0.209282 -0.954127 15.7929 18.1408 2.43476 -8.38581 0.0 0.0 0.0 0.0 0.0 
